<svg height="500" viewBox="0 0 1000 500" width="1000" xmlns="http://www.w3.org/2000/svg" xmlns:xlink="http://www.w3.org/1999/xlink"><linearGradient id="a"><stop offset="0" stop-color="#006736"/><stop offset="1" stop-color="#21b572"/></linearGradient><linearGradient id="b" gradientUnits="userSpaceOnUse" x1="704.198" x2="662.662" xlink:href="#a" y1="402.208" y2="443.744"/><linearGradient id="c" gradientUnits="userSpaceOnUse" x1="336.05" x2="294.514" xlink:href="#a" y1="402.208" y2="443.744"/><linearGradient id="d" gradientUnits="userSpaceOnUse" x1="520.757" x2="479.221" xlink:href="#a" y1="84.7208" y2="126.257"/><linearGradient id="e" gradientUnits="userSpaceOnUse" x1="567.279" x2="421.399" xlink:href="#a" y1="295.117" y2="344.117"/><path d="m-0 20c0-11.04569 8.95431-20 20-20h960c11.046 0 20 8.95431 20 20v460c0 11.046-8.954 20-20 20h-960c-11.04571 0-20-8.954-20-20z" fill="#1a1a1a" fill-rule="evenodd"/><path d="m500 104.357s185.701 321.643 185.701 321.643h-371.401s185.7-321.643 185.7-321.643z" style="fill:none;stroke:#fff;stroke-linecap:round;stroke-linejoin:round;stroke-miterlimit:10;stroke-width:7"/><path d="m683.43 402.208c11.47 0 20.768 9.299 20.768 20.768 0 11.47-9.298 20.768-20.768 20.768s-20.768-9.298-20.768-20.768c0-11.469 9.298-20.768 20.768-20.768z" style="fill:none;stroke:#21b572;stroke-linecap:round;stroke-linejoin:round;stroke-miterlimit:10;stroke-width:3"/><path d="m683.43 402.208c11.47 0 20.768 9.299 20.768 20.768 0 11.47-9.298 20.768-20.768 20.768s-20.768-9.298-20.768-20.768c0-11.469 9.298-20.768 20.768-20.768z" fill="url(#b)" fill-rule="evenodd"/><path d="m315.282 402.208c11.469 0 20.768 9.299 20.768 20.768 0 11.47-9.299 20.768-20.768 20.768-11.47 0-20.768-9.298-20.768-20.768 0-11.469 9.298-20.768 20.768-20.768z" style="fill:none;stroke:#21b572;stroke-linecap:round;stroke-linejoin:round;stroke-miterlimit:10;stroke-width:3"/><path d="m315.282 402.208c11.469 0 20.768 9.299 20.768 20.768 0 11.47-9.299 20.768-20.768 20.768-11.47 0-20.768-9.298-20.768-20.768 0-11.469 9.298-20.768 20.768-20.768z" fill="url(#c)" fill-rule="evenodd"/><path d="m499.989 84.7208c11.469 0 20.768 9.2982 20.768 20.7682s-9.299 20.768-20.768 20.768c-11.47 0-20.768-9.298-20.768-20.768s9.298-20.7682 20.768-20.7682z" style="fill:none;stroke:#21b572;stroke-linecap:round;stroke-linejoin:round;stroke-miterlimit:10;stroke-width:3"/><path d="m499.989 84.7208c11.469 0 20.768 9.2982 20.768 20.7682s-9.299 20.768-20.768 20.768c-11.47 0-20.768-9.298-20.768-20.768s9.298-20.7682 20.768-20.7682z" fill="url(#d)" fill-rule="evenodd"/><g font-family="Helvetica" font-size="40"><text fill="#fff" transform="translate(464.248 23.3487)"><tspan x="0" y="39">Key</tspan></text><text fill="#9f9f9f" transform="translate(145.144 398.574)"><tspan x="0" y="39">/</tspan> <tspan fill="#fff" x="11.1133" y="39">Action</tspan></text><text fill="#fff" transform="translate(36.3815 398.201)"><tspan x="0" y="39">Event</tspan></text><text fill="#fff" transform="translate(738.601 398.574)"><tspan x="0" y="39">Observers</tspan></text></g><path d="m443.719 303.577c0 .2-.067.546-.2 1.04 0 0-8.18 22.54-8.18 22.54-.48 1.28-.72 2.106-.72 2.48 0 .426.133.64.4.64.453 0 1.293-.814 2.52-2.44.467-.614.733-.92.8-.92.173 0 .337.076.49.23.153.153.23.303.23.45 0 .226-.437.88-1.31 1.96s-1.723 1.923-2.55 2.53c-.827.606-1.567.91-2.22.91-1.44 0-2.16-.747-2.16-2.24 0-.96.373-2.294 1.12-4-1.04 1.786-2.277 3.273-3.71 4.46-1.433 1.186-2.717 1.78-3.85 1.78-.92 0-1.67-.367-2.25-1.1-.58-.734-.87-1.7-.87-2.9 0-1.894.657-3.967 1.97-6.22 1.313-2.254 2.96-4.194 4.94-5.82 1.98-1.627 3.703-2.44 5.17-2.44.467 0 .963.106 1.49.32.527.213.91.48 1.15.8 0 0 2.24-6.34 2.24-6.34.293-.774.44-1.374.44-1.8 0-.52-.573-.847-1.72-.98-.24-.027-.36-.194-.36-.5 0-.32.107-.48.32-.48.84-.16 1.853-.457 3.04-.89 1.187-.434 2.087-.844 2.7-1.23.307-.187.533-.28.68-.28.267 0 .4.146.4.44zm-8.46 14.18c0-1.307-.64-1.96-1.92-1.96-1.12 0-2.357.686-3.71 2.06-1.353 1.373-2.487 3.056-3.4 5.05-.913 1.993-1.37 3.836-1.37 5.53 0 1.253.427 1.88 1.28 1.88.907 0 2.023-.737 3.35-2.21 1.327-1.474 2.62-3.36 3.88-5.66s1.89-3.864 1.89-4.69zm18.26-.24c0 1.826-.907 3.47-2.72 4.93s-3.92 2.19-6.32 2.19c-.08.8-.12 1.52-.12 2.16 0 1.173.163 2.013.49 2.52.327.506.87.76 1.63.76 1.707 0 3.22-.98 4.54-2.94 0 0 .12-.06.12-.06.107 0 .22.07.34.21s.18.27.18.39c0 .28-.407.946-1.22 2-.813 1.053-1.67 1.87-2.57 2.45s-1.777.87-2.63.87c-1.307 0-2.38-.504-3.22-1.51-.84-1.007-1.26-2.197-1.26-3.57 0-1.92.503-3.927 1.51-6.02 1.007-2.094 2.293-3.847 3.86-5.26 1.567-1.414 3.017-2.12 4.35-2.12.96 0 1.707.27 2.24.81s.8 1.27.8 2.19zm-2.84.68c0-1.12-.493-1.68-1.48-1.68-.96 0-1.86.653-2.7 1.96-.84 1.306-1.433 2.933-1.78 4.88 1.12 0 2.117-.237 2.99-.71.873-.474 1.587-1.154 2.14-2.04.553-.887.83-1.69.83-2.41zm17.88-1.16c0 .413-.13.75-.39 1.01s-.583.39-.97.39c-.72 0-1.407-.394-2.06-1.18-.573-.68-1.127-1.02-1.66-1.02-.573 0-1.287.62-2.14 1.86s-1.523 2.713-2.01 4.42c-.487 1.706-.73 3.48-.73 5.32 0 1.6.64 2.4 1.92 2.4.587 0 1.257-.26 2.01-.78s1.443-1.18 2.07-1.98c0 0 .12-.04.12-.04.107 0 .217.066.33.2.113.133.17.266.17.4 0 .28-.397.9-1.19 1.86s-1.62 1.716-2.48 2.27c-.86.553-1.67.83-2.43.83-1.16 0-2.15-.5-2.97-1.5s-1.23-2.194-1.23-3.58c0-1.92.52-3.92 1.56-6s2.37-3.834 3.99-5.26c1.62-1.427 3.103-2.14 4.45-2.14 1 0 1.857.246 2.57.74.713.493 1.07 1.086 1.07 1.78zm15.16 3.64c0 1.906-.5 3.826-1.5 5.76-1 1.933-2.293 3.51-3.88 4.73s-3.153 1.83-4.7 1.83c-1.307 0-2.427-.584-3.36-1.75-.933-1.167-1.4-2.624-1.4-4.37 0-1.907.497-3.827 1.49-5.76.993-1.934 2.28-3.517 3.86-4.75 1.58-1.234 3.143-1.85 4.69-1.85 1.307 0 2.433.586 3.38 1.76.947 1.173 1.42 2.64 1.42 4.4zm-3.28-2.6c0-.867-.11-1.457-.33-1.77-.22-.314-.617-.47-1.19-.47-.893 0-1.897.733-3.01 2.2-1.113 1.466-2.023 3.25-2.73 5.35s-1.06 4.116-1.06 6.05c0 .88.113 1.48.34 1.8s.633.48 1.22.48c.88 0 1.873-.73 2.98-2.19s2.013-3.244 2.72-5.35c.707-2.107 1.06-4.14 1.06-6.1zm23.1-2.36s-4.18 12.28-4.18 12.28c-.347 1.04-.52 1.693-.52 1.96 0 .32.133.48.4.48.427 0 1.187-.707 2.28-2.12.533-.694.853-1.04.96-1.04.173 0 .33.073.47.22.14.146.21.3.21.46 0 .2-.44.803-1.32 1.81-.88 1.006-1.73 1.796-2.55 2.37-.82.573-1.53.86-2.13.86-.653 0-1.163-.157-1.53-.47-.367-.314-.55-.744-.55-1.29 0-.68.213-1.64.64-2.88 0 0 1.32-3.88 1.32-3.88-1.6 2.706-3.157 4.803-4.67 6.29-1.513 1.486-2.877 2.23-4.09 2.23-.72 0-1.32-.244-1.8-.73-.48-.487-.72-1.124-.72-1.91 0-.854.267-1.96.8-3.32 0 0 3.2-7.52 3.2-7.52.453-1.08.68-1.734.68-1.96 0-.32-.12-.48-.36-.48-.493 0-1.347.74-2.56 2.22-.547.653-.867.98-.96.98-.16 0-.3-.074-.42-.22-.12-.147-.18-.3-.18-.46 0-.24.463-.854 1.39-1.84.927-.987 1.833-1.774 2.72-2.36.887-.587 1.65-.88 2.29-.88.587 0 1.053.136 1.4.41.347.273.52.643.52 1.11 0 .746-.293 1.8-.88 3.16 0 0-3.24 7.72-3.24 7.72-.373.866-.56 1.6-.56 2.2 0 .746.307 1.12.92 1.12.747 0 1.833-.924 3.26-2.77 1.427-1.847 3.02-4.35 4.78-7.51 0 0 1.48-4.24 1.48-4.24.067-.2.307-.37.72-.51s.84-.21 1.28-.21c.373 0 .72.06 1.04.18s.473.3.46.54zm18.16 4.48c0 1.906-.52 3.87-1.56 5.89s-2.367 3.676-3.98 4.97c-1.613 1.293-3.18 1.94-4.7 1.94-1.267 0-2.227-.574-2.88-1.72 0 0-2.52 7.44-2.52 7.44-.16.48-.24.946-.24 1.4 0 .386.157.693.47.92.313.226.97.426 1.97.6.133 0 .2.106.2.32 0 .533-.16.8-.48.8-3-.24-6.133-.36-9.4-.36-.133 0-.2-.134-.2-.4 0-.174.053-.337.16-.49.107-.154.213-.23.32-.23 1.893-.134 3.12-.987 3.68-2.56 0 0 6.96-20.52 6.96-20.52-.773.36-1.627.806-2.56 1.34 0 0-.1.02-.1.02-.133 0-.257-.07-.37-.21s-.17-.29-.17-.45c0-.107.143-.254.43-.44.287-.187.57-.367.85-.54.853-.52 1.68-.96 2.48-1.32 0 0 1.84-5.46 1.84-5.46.067-.187.313-.347.74-.48.427-.134.847-.2 1.26-.2.387 0 .743.056 1.07.17.327.113.49.283.49.51 0 0-1.32 3.82-1.32 3.82.88-.294 1.747-.44 2.6-.44 1.533 0 2.743.503 3.63 1.51.887 1.006 1.33 2.396 1.33 4.17zm-3.88-.56c0-2.054-.813-3.08-2.44-3.08-.733 0-1.347.066-1.84.2 0 0-3.36 9.88-3.36 9.88-.4 1.16-.6 2.16-.6 3 0 1.386.64 2.08 1.92 2.08 1.013 0 2.02-.58 3.02-1.74s1.8-2.67 2.4-4.53.9-3.797.9-5.81zm18.84-16.06c0 .253-.08.6-.24 1.04 0 0-8.72 22.54-8.72 22.54-.507 1.346-.76 2.12-.76 2.32 0 .4.147.6.44.6.573 0 1.473-.787 2.7-2.36.52-.667.833-1 .94-1 .173 0 .327.083.46.25.133.166.2.316.2.45 0 .213-.47.876-1.41 1.99-.94 1.113-1.85 1.99-2.73 2.63s-1.627.96-2.24.96c-1.413 0-2.12-.707-2.12-2.12 0-.667.187-1.52.56-2.56 0 0 7.28-19.02 7.28-19.02.293-.774.44-1.374.44-1.8 0-.52-.56-.847-1.68-.98-.213-.027-.32-.194-.32-.5 0-.32.107-.48.32-.48.853-.16 1.88-.46 3.08-.9s2.107-.847 2.72-1.22c.307-.187.533-.28.68-.28.267 0 .4.146.4.44zm10.34 13.94c0 1.826-.907 3.47-2.72 4.93s-3.92 2.19-6.32 2.19c-.08.8-.12 1.52-.12 2.16 0 1.173.163 2.013.49 2.52.327.506.87.76 1.63.76 1.707 0 3.22-.98 4.54-2.94 0 0 .12-.06.12-.06.107 0 .22.07.34.21s.18.27.18.39c0 .28-.407.946-1.22 2-.813 1.053-1.67 1.87-2.57 2.45s-1.777.87-2.63.87c-1.307 0-2.38-.504-3.22-1.51-.84-1.007-1.26-2.197-1.26-3.57 0-1.92.503-3.927 1.51-6.02 1.007-2.094 2.293-3.847 3.86-5.26 1.567-1.414 3.017-2.12 4.35-2.12.96 0 1.707.27 2.24.81s.8 1.27.8 2.19zm-2.84.68c0-1.12-.493-1.68-1.48-1.68-.96 0-1.86.653-2.7 1.96-.84 1.306-1.433 2.933-1.78 4.88 1.12 0 2.117-.237 2.99-.71.873-.474 1.587-1.154 2.14-2.04.553-.887.83-1.69.83-2.41zm26.32-14.62c0 .2-.067.546-.2 1.04 0 0-8.18 22.54-8.18 22.54-.48 1.28-.72 2.106-.72 2.48 0 .426.133.64.4.64.453 0 1.293-.814 2.52-2.44.467-.614.733-.92.8-.92.173 0 .337.076.49.23.153.153.23.303.23.45 0 .226-.437.88-1.31 1.96s-1.723 1.923-2.55 2.53c-.827.606-1.567.91-2.22.91-1.44 0-2.16-.747-2.16-2.24 0-.96.373-2.294 1.12-4-1.04 1.786-2.277 3.273-3.71 4.46-1.433 1.186-2.717 1.78-3.85 1.78-.92 0-1.67-.367-2.25-1.1-.58-.734-.87-1.7-.87-2.9 0-1.894.657-3.967 1.97-6.22 1.313-2.254 2.96-4.194 4.94-5.82 1.98-1.627 3.703-2.44 5.17-2.44.467 0 .963.106 1.49.32.527.213.91.48 1.15.8 0 0 2.24-6.34 2.24-6.34.293-.774.44-1.374.44-1.8 0-.52-.573-.847-1.72-.98-.24-.027-.36-.194-.36-.5 0-.32.107-.48.32-.48.84-.16 1.853-.457 3.04-.89 1.187-.434 2.087-.844 2.7-1.23.307-.187.533-.28.68-.28.267 0 .4.146.4.44zm-8.46 14.18c0-1.307-.64-1.96-1.92-1.96-1.12 0-2.357.686-3.71 2.06-1.353 1.373-2.487 3.056-3.4 5.05-.913 1.993-1.37 3.836-1.37 5.53 0 1.253.427 1.88 1.28 1.88.907 0 2.023-.737 3.35-2.21 1.327-1.474 2.62-3.36 3.88-5.66s1.89-3.864 1.89-4.69z" fill="#22b573"/><path d="m443.719 303.577c0 .2-.067.546-.2 1.04 0 0-8.18 22.54-8.18 22.54-.48 1.28-.72 2.106-.72 2.48 0 .426.133.64.4.64.453 0 1.293-.814 2.52-2.44.467-.614.733-.92.8-.92.173 0 .337.076.49.23.153.153.23.303.23.45 0 .226-.437.88-1.31 1.96s-1.723 1.923-2.55 2.53c-.827.606-1.567.91-2.22.91-1.44 0-2.16-.747-2.16-2.24 0-.96.373-2.294 1.12-4-1.04 1.786-2.277 3.273-3.71 4.46-1.433 1.186-2.717 1.78-3.85 1.78-.92 0-1.67-.367-2.25-1.1-.58-.734-.87-1.7-.87-2.9 0-1.894.657-3.967 1.97-6.22 1.313-2.254 2.96-4.194 4.94-5.82 1.98-1.627 3.703-2.44 5.17-2.44.467 0 .963.106 1.49.32.527.213.91.48 1.15.8 0 0 2.24-6.34 2.24-6.34.293-.774.44-1.374.44-1.8 0-.52-.573-.847-1.72-.98-.24-.027-.36-.194-.36-.5 0-.32.107-.48.32-.48.84-.16 1.853-.457 3.04-.89 1.187-.434 2.087-.844 2.7-1.23.307-.187.533-.28.68-.28.267 0 .4.146.4.44zm-8.46 14.18c0-1.307-.64-1.96-1.92-1.96-1.12 0-2.357.686-3.71 2.06-1.353 1.373-2.487 3.056-3.4 5.05-.913 1.993-1.37 3.836-1.37 5.53 0 1.253.427 1.88 1.28 1.88.907 0 2.023-.737 3.35-2.21 1.327-1.474 2.62-3.36 3.88-5.66s1.89-3.864 1.89-4.69zm18.26-.24c0 1.826-.907 3.47-2.72 4.93s-3.92 2.19-6.32 2.19c-.08.8-.12 1.52-.12 2.16 0 1.173.163 2.013.49 2.52.327.506.87.76 1.63.76 1.707 0 3.22-.98 4.54-2.94 0 0 .12-.06.12-.06.107 0 .22.07.34.21s.18.27.18.39c0 .28-.407.946-1.22 2-.813 1.053-1.67 1.87-2.57 2.45s-1.777.87-2.63.87c-1.307 0-2.38-.504-3.22-1.51-.84-1.007-1.26-2.197-1.26-3.57 0-1.92.503-3.927 1.51-6.02 1.007-2.094 2.293-3.847 3.86-5.26 1.567-1.414 3.017-2.12 4.35-2.12.96 0 1.707.27 2.24.81s.8 1.27.8 2.19zm-2.84.68c0-1.12-.493-1.68-1.48-1.68-.96 0-1.86.653-2.7 1.96-.84 1.306-1.433 2.933-1.78 4.88 1.12 0 2.117-.237 2.99-.71.873-.474 1.587-1.154 2.14-2.04.553-.887.83-1.69.83-2.41zm17.88-1.16c0 .413-.13.75-.39 1.01s-.583.39-.97.39c-.72 0-1.407-.394-2.06-1.18-.573-.68-1.127-1.02-1.66-1.02-.573 0-1.287.62-2.14 1.86s-1.523 2.713-2.01 4.42c-.487 1.706-.73 3.48-.73 5.32 0 1.6.64 2.4 1.92 2.4.587 0 1.257-.26 2.01-.78s1.443-1.18 2.07-1.98c0 0 .12-.04.12-.04.107 0 .217.066.33.2.113.133.17.266.17.4 0 .28-.397.9-1.19 1.86s-1.62 1.716-2.48 2.27c-.86.553-1.67.83-2.43.83-1.16 0-2.15-.5-2.97-1.5s-1.23-2.194-1.23-3.58c0-1.92.52-3.92 1.56-6s2.37-3.834 3.99-5.26c1.62-1.427 3.103-2.14 4.45-2.14 1 0 1.857.246 2.57.74.713.493 1.07 1.086 1.07 1.78zm15.16 3.64c0 1.906-.5 3.826-1.5 5.76-1 1.933-2.293 3.51-3.88 4.73s-3.153 1.83-4.7 1.83c-1.307 0-2.427-.584-3.36-1.75-.933-1.167-1.4-2.624-1.4-4.37 0-1.907.497-3.827 1.49-5.76.993-1.934 2.28-3.517 3.86-4.75 1.58-1.234 3.143-1.85 4.69-1.85 1.307 0 2.433.586 3.38 1.76.947 1.173 1.42 2.64 1.42 4.4zm-3.28-2.6c0-.867-.11-1.457-.33-1.77-.22-.314-.617-.47-1.19-.47-.893 0-1.897.733-3.01 2.2-1.113 1.466-2.023 3.25-2.73 5.35s-1.06 4.116-1.06 6.05c0 .88.113 1.48.34 1.8s.633.48 1.22.48c.88 0 1.873-.73 2.98-2.19s2.013-3.244 2.72-5.35c.707-2.107 1.06-4.14 1.06-6.1zm23.1-2.36s-4.18 12.28-4.18 12.28c-.347 1.04-.52 1.693-.52 1.96 0 .32.133.48.4.48.427 0 1.187-.707 2.28-2.12.533-.694.853-1.04.96-1.04.173 0 .33.073.47.22.14.146.21.3.21.46 0 .2-.44.803-1.32 1.81-.88 1.006-1.73 1.796-2.55 2.37-.82.573-1.53.86-2.13.86-.653 0-1.163-.157-1.53-.47-.367-.314-.55-.744-.55-1.29 0-.68.213-1.64.64-2.88 0 0 1.32-3.88 1.32-3.88-1.6 2.706-3.157 4.803-4.67 6.29-1.513 1.486-2.877 2.23-4.09 2.23-.72 0-1.32-.244-1.8-.73-.48-.487-.72-1.124-.72-1.91 0-.854.267-1.96.8-3.32 0 0 3.2-7.52 3.2-7.52.453-1.08.68-1.734.68-1.96 0-.32-.12-.48-.36-.48-.493 0-1.347.74-2.56 2.22-.547.653-.867.98-.96.98-.16 0-.3-.074-.42-.22-.12-.147-.18-.3-.18-.46 0-.24.463-.854 1.39-1.84.927-.987 1.833-1.774 2.72-2.36.887-.587 1.65-.88 2.29-.88.587 0 1.053.136 1.4.41.347.273.52.643.52 1.11 0 .746-.293 1.8-.88 3.16 0 0-3.24 7.72-3.24 7.72-.373.866-.56 1.6-.56 2.2 0 .746.307 1.12.92 1.12.747 0 1.833-.924 3.26-2.77 1.427-1.847 3.02-4.35 4.78-7.51 0 0 1.48-4.24 1.48-4.24.067-.2.307-.37.72-.51s.84-.21 1.28-.21c.373 0 .72.06 1.04.18s.473.3.46.54zm18.16 4.48c0 1.906-.52 3.87-1.56 5.89s-2.367 3.676-3.98 4.97c-1.613 1.293-3.18 1.94-4.7 1.94-1.267 0-2.227-.574-2.88-1.72 0 0-2.52 7.44-2.52 7.44-.16.48-.24.946-.24 1.4 0 .386.157.693.47.92.313.226.97.426 1.97.6.133 0 .2.106.2.32 0 .533-.16.8-.48.8-3-.24-6.133-.36-9.4-.36-.133 0-.2-.134-.2-.4 0-.174.053-.337.16-.49.107-.154.213-.23.32-.23 1.893-.134 3.12-.987 3.68-2.56 0 0 6.96-20.52 6.96-20.52-.773.36-1.627.806-2.56 1.34 0 0-.1.02-.1.02-.133 0-.257-.07-.37-.21s-.17-.29-.17-.45c0-.107.143-.254.43-.44.287-.187.57-.367.85-.54.853-.52 1.68-.96 2.48-1.32 0 0 1.84-5.46 1.84-5.46.067-.187.313-.347.74-.48.427-.134.847-.2 1.26-.2.387 0 .743.056 1.07.17.327.113.49.283.49.51 0 0-1.32 3.82-1.32 3.82.88-.294 1.747-.44 2.6-.44 1.533 0 2.743.503 3.63 1.51.887 1.006 1.33 2.396 1.33 4.17zm-3.88-.56c0-2.054-.813-3.08-2.44-3.08-.733 0-1.347.066-1.84.2 0 0-3.36 9.88-3.36 9.88-.4 1.16-.6 2.16-.6 3 0 1.386.64 2.08 1.92 2.08 1.013 0 2.02-.58 3.02-1.74s1.8-2.67 2.4-4.53.9-3.797.9-5.81zm18.84-16.06c0 .253-.08.6-.24 1.04 0 0-8.72 22.54-8.72 22.54-.507 1.346-.76 2.12-.76 2.32 0 .4.147.6.44.6.573 0 1.473-.787 2.7-2.36.52-.667.833-1 .94-1 .173 0 .327.083.46.25.133.166.2.316.2.45 0 .213-.47.876-1.41 1.99-.94 1.113-1.85 1.99-2.73 2.63s-1.627.96-2.24.96c-1.413 0-2.12-.707-2.12-2.12 0-.667.187-1.52.56-2.56 0 0 7.28-19.02 7.28-19.02.293-.774.44-1.374.44-1.8 0-.52-.56-.847-1.68-.98-.213-.027-.32-.194-.32-.5 0-.32.107-.48.32-.48.853-.16 1.88-.46 3.08-.9s2.107-.847 2.72-1.22c.307-.187.533-.28.68-.28.267 0 .4.146.4.44zm10.34 13.94c0 1.826-.907 3.47-2.72 4.93s-3.92 2.19-6.32 2.19c-.08.8-.12 1.52-.12 2.16 0 1.173.163 2.013.49 2.52.327.506.87.76 1.63.76 1.707 0 3.22-.98 4.54-2.94 0 0 .12-.06.12-.06.107 0 .22.07.34.21s.18.27.18.39c0 .28-.407.946-1.22 2-.813 1.053-1.67 1.87-2.57 2.45s-1.777.87-2.63.87c-1.307 0-2.38-.504-3.22-1.51-.84-1.007-1.26-2.197-1.26-3.57 0-1.92.503-3.927 1.51-6.02 1.007-2.094 2.293-3.847 3.86-5.26 1.567-1.414 3.017-2.12 4.35-2.12.96 0 1.707.27 2.24.81s.8 1.27.8 2.19zm-2.84.68c0-1.12-.493-1.68-1.48-1.68-.96 0-1.86.653-2.7 1.96-.84 1.306-1.433 2.933-1.78 4.88 1.12 0 2.117-.237 2.99-.71.873-.474 1.587-1.154 2.14-2.04.553-.887.83-1.69.83-2.41zm26.32-14.62c0 .2-.067.546-.2 1.04 0 0-8.18 22.54-8.18 22.54-.48 1.28-.72 2.106-.72 2.48 0 .426.133.64.4.64.453 0 1.293-.814 2.52-2.44.467-.614.733-.92.8-.92.173 0 .337.076.49.23.153.153.23.303.23.45 0 .226-.437.88-1.31 1.96s-1.723 1.923-2.55 2.53c-.827.606-1.567.91-2.22.91-1.44 0-2.16-.747-2.16-2.24 0-.96.373-2.294 1.12-4-1.04 1.786-2.277 3.273-3.71 4.46-1.433 1.186-2.717 1.78-3.85 1.78-.92 0-1.67-.367-2.25-1.1-.58-.734-.87-1.7-.87-2.9 0-1.894.657-3.967 1.97-6.22 1.313-2.254 2.96-4.194 4.94-5.82 1.98-1.627 3.703-2.44 5.17-2.44.467 0 .963.106 1.49.32.527.213.91.48 1.15.8 0 0 2.24-6.34 2.24-6.34.293-.774.44-1.374.44-1.8 0-.52-.573-.847-1.72-.98-.24-.027-.36-.194-.36-.5 0-.32.107-.48.32-.48.84-.16 1.853-.457 3.04-.89 1.187-.434 2.087-.844 2.7-1.23.307-.187.533-.28.68-.28.267 0 .4.146.4.44zm-8.46 14.18c0-1.307-.64-1.96-1.92-1.96-1.12 0-2.357.686-3.71 2.06-1.353 1.373-2.487 3.056-3.4 5.05-.913 1.993-1.37 3.836-1.37 5.53 0 1.253.427 1.88 1.28 1.88.907 0 2.023-.737 3.35-2.21 1.327-1.474 2.62-3.36 3.88-5.66s1.89-3.864 1.89-4.69z" fill="url(#e)"/></svg>